<svg xmlns="http://www.w3.org/2000/svg" xmlns:svg="http://www.w3.org/2000/svg" xmlns:xlink="http://www.w3.org/1999/xlink" version="1.0" height="640pt" width="990pt" viewBox="155 157 998 646" ><defs><style type="text/css">
            @font-face {
                font-family: 'noto_regular';
                src: url('https://app.creately.com/diagram/assets/fonts/noto/noto-regular.woff') format('woff'),
                     url('https://app.creately.com/diagram/assets/fonts/noto/noto-regular.woff2') format('woff2');
                font-weight: normal;
                font-style: normal;
            }
        p {
            margin: 0;
        }
        </style></defs><defs><style>
            span{ display: inline-block; }
        </style></defs><g id="xEOjh88qA2O"><g transform="translate(290 160)"><path d="M 10,0 L 737.9999999999995,0 L 737.9999999999995,0 L 737.9999999999995,0 A 10 10 0 0 1 747.9999999999995 10 L 747.9999999999995,480.00000000000006 L 747.9999999999995,480.00000000000006 L 747.9999999999995,480.00000000000006 A 10 10 0 0 1 737.9999999999995 490.00000000000006 L 10,490.00000000000006 L 10,490.00000000000006 L 10,490.00000000000006 A 10 10 0 0 1 0 480.00000000000006 L 0,10 L 0,10 L 0,10.000000000000002 A 10 10 0 0 1 10 0 Z" fill="rgb(255,255,255)" stroke="#b4939f" stroke-width="2" stroke-linecap="round" stroke-linejoin="round"/></g><g transform="translate(598.6399999999998, 170) rotate(0, 65.36, 0)" width="130.72" height="21.61"><text text-decoration="none" x="1.8599999999999994" fill="#700c2b" font-weight="bold" font-size="12pt" font-family="noto_regular"  y="15">MVC&#160;</text><text text-decoration="none" x="39.86" fill="#700c2b" font-weight="bold" font-size="12pt" font-family="noto_regular"  y="15">Architecture</text><text text-decoration="none" x="128.86" fill="#4b4b4b" font-size="10pt" font-family="noto_regular"  y="15"></text></g></g><g id="wuA5eY3xR5q"><g transform="translate(160 640)"><path d="M 10,0 L 980,0 L 980,0 L 980,0 A 10 10 0 0 1 990 10 L 990,150.00000000000003 L 990,150.00000000000003 L 990,150.00000000000003 A 10 10 0 0 1 980 160.00000000000003 L 10,160.00000000000003 L 10,160.00000000000003 L 10,160.00000000000003 A 10 10 0 0 1 0 150.00000000000003 L 0,10 L 0,10 L 0,10.000000000000002 A 10 10 0 0 1 10 0 Z" fill="rgb(255,255,255)" stroke="#b4939f" stroke-width="2" stroke-linecap="round" stroke-linejoin="round"/></g><g transform="translate(528.045, 771.6) rotate(0, 126.955, 18.4)" width="253.91" height="18.4"><text text-decoration="none" x="10.954999999999998" fill="#700c2b" font-size="10pt" font-family="noto_regular"  y="15">MVC&#160;</text><text text-decoration="none" x="40.955" fill="#700c2b" font-size="10pt" font-family="noto_regular"  y="15">Architecture:&#160;</text><text text-decoration="none" x="115.955" fill="#700c2b" font-size="10pt" font-family="noto_regular"  y="15">User&#160;</text><text text-decoration="none" x="144.95499999999998" fill="#700c2b" font-size="10pt" font-family="noto_regular"  y="15">Perspective&#160;</text><text text-decoration="none" x="214.95499999999998" fill="#700c2b" font-size="10pt" font-family="noto_regular"  y="15">View</text><text text-decoration="none" x="242.95499999999998" fill="#4b4b4b" font-size="10pt" font-family="noto_regular"  y="15"></text></g></g><g id="LwnkGMoOmVk"><g transform="translate(640 670.0000008823529)"><path d="M 0,0 L 84.99999999999997,0 L 109.99999999999997,38.23529499999996 L 84.99999999999997,76.47058999999992 L 0,76.47058999999992 L 18,38.23529499999996 L 0,0 Z" fill="white" stroke="#ca454d" stroke-width="2" stroke-linecap="round" stroke-linejoin="round"/></g><g transform="translate(668.26, 680.6352958823528) rotate(0, 26.74, 27.6)" width="53.48" height="55.2"><text text-decoration="none" x="2.7399999999999984" fill="#ca454d" font-size="10pt" font-family="noto_regular"  y="12">Get&#160;</text><text text-decoration="none" x="25.74" fill="#ca454d" font-size="10pt" font-family="noto_regular"  y="12">data</text><text text-decoration="none" x="50.739999999999995" fill="#ca454d" font-size="10pt" font-family="noto_regular"  y="12"></text><text text-decoration="none" x="8.239999999999998" fill="#ca454d" font-size="10pt" font-family="noto_regular"  y="28">for&#160;</text><text text-decoration="none" x="27.24" fill="#ca454d" font-size="10pt" font-family="noto_regular"  y="28">the</text><text text-decoration="none" x="45.239999999999995" fill="#ca454d" font-size="10pt" font-family="noto_regular"  y="28"></text><text text-decoration="none" x="5.239999999999998" fill="#ca454d" font-size="10pt" font-family="noto_regular"  y="47">request</text><text text-decoration="none" x="48.239999999999995" fill="#4b4b4b" font-size="10pt" font-family="noto_regular"  y="47"></text></g></g><g id="jce8aWRTMaP"><g transform="translate(450 670)"><path d="M 0,0 L 84.99999999999997,0 L 109.99999999999997,38.23529499999996 L 84.99999999999997,76.47058999999992 L 0,76.47058999999992 L 18,38.23529499999996 L 0,0 Z" fill="white" stroke="#a4617a" stroke-width="2" stroke-linecap="round" stroke-linejoin="round"/></g><g transform="translate(475.435, 680.6352949999999) rotate(0, 29.565, 27.6)" width="59.13" height="55.2"><text text-decoration="none" x="8.065000000000001" fill="#a4617a" font-size="10pt" font-family="noto_regular"  y="12">Convert</text><text text-decoration="none" x="51.065" fill="#a4617a" font-size="10pt" font-family="noto_regular"  y="12"></text><text text-decoration="none" x="5.065000000000001" fill="#a4617a" font-size="10pt" font-family="noto_regular"  y="28">action&#160;</text><text text-decoration="none" x="43.065" fill="#a4617a" font-size="10pt" font-family="noto_regular"  y="28">to</text><text text-decoration="none" x="54.065" fill="#a4617a" font-size="10pt" font-family="noto_regular"  y="28"></text><text text-decoration="none" x="3.0650000000000013" fill="#a4617a" font-size="10pt" font-family="noto_regular"  y="47">a&#160;</text><text text-decoration="none" x="13.065000000000001" fill="#a4617a" font-size="10pt" font-family="noto_regular"  y="47">request</text><text text-decoration="none" x="56.065" fill="#4b4b4b" font-size="10pt" font-family="noto_regular"  y="47"></text></g></g><g id="t7ob40xh09o"><g transform="translate(580 240)"><path d="M 10,0 L 150,0 L 150,0 L 150,0 A 10 10 0 0 1 160 10 L 160,90 L 160,90 L 160,90 A 10 10 0 0 1 150 100 L 10,100 L 10,100 L 10,100 A 10 10 0 0 1 0 90 L 0,10 L 0,10 L 0,10.000000000000002 A 10 10 0 0 1 10 0 Z" fill="rgb(235,191,205)" stroke="#83304a" stroke-width="2" stroke-linecap="round" stroke-linejoin="round"/></g><g transform="translate(622.185, 279.195) rotate(0, 37.815, 10.805)" width="75.63" height="21.61"><text text-decoration="none" x="2.3149999999999977" fill="#83304a" font-weight="bold" font-size="12pt" font-family="noto_regular"  y="15">Controller</text><text text-decoration="none" x="73.315" fill="#4b4b4b" font-size="10pt" font-family="noto_regular"  y="15"></text></g></g><g id="9raH8vAfWzq"><g transform="translate(420 460)"><path d="M 10,0 L 150,0 L 150,0 L 150,0 A 10 10 0 0 1 160 10 L 160,90 L 160,90 L 160,90 A 10 10 0 0 1 150 100 L 10,100 L 10,100 L 10,100 A 10 10 0 0 1 0 90 L 0,10 L 0,10 L 0,10.000000000000002 A 10 10 0 0 1 10 0 Z" fill="rgb(252,209,220)" stroke="#d56b85" stroke-width="2" stroke-linecap="round" stroke-linejoin="round"/></g><g transform="translate(482.33, 499.195) rotate(0, 17.67, 10.805)" width="35.34" height="21.61"><text text-decoration="none" x="0.1700000000000017" fill="#d56b85" font-weight="bold" font-size="12pt" font-family="noto_regular"  y="15">View</text><text text-decoration="none" x="35.17" fill="#4b4b4b" font-size="10pt" font-family="noto_regular"  y="15"></text></g></g><g id="0vRLFj0Lyx2"><g transform="translate(740 460)"><path d="M 10,0 L 150,0 L 150,0 L 150,0 A 10 10 0 0 1 160 10 L 160,90 L 160,90 L 160,90 A 10 10 0 0 1 150 100 L 10,100 L 10,100 L 10,100 A 10 10 0 0 1 0 90 L 0,10 L 0,10 L 0,10.000000000000002 A 10 10 0 0 1 10 0 Z" fill="rgb(248,185,189)" stroke="#ca454d" stroke-width="2" stroke-linecap="round" stroke-linejoin="round"/></g><g transform="translate(796.405, 499.195) rotate(0, 23.595, 10.805)" width="47.19" height="21.61"><text text-decoration="none" x="1.0949999999999989" fill="#ca454d" font-weight="bold" font-size="12pt" font-family="noto_regular"  y="15">Model</text><text text-decoration="none" x="46.095" fill="#4b4b4b" font-size="10pt" font-family="noto_regular"  y="15"></text></g></g><g id="Tj5Vt7Qgvyn"><mask id="6e8ac" x="486" y="276" width="108" height="198" maskUnits="userSpaceOnUse"><rect x="486" y="276" width="108" height="198" fill="white" />undefinedundefinedundefined</mask><g mask="url(#6e8ac)"><path d="M 580,290 L 510,290 Q 500,290 500,300 L 500,460" fill="none" stroke="#fa9ab1" stroke-width="2" stroke-linecap="round" stroke-linejoin="round"/><path d="M 580,290 L 566.9565784496589,283.75 L 571.304385633106,290 L 566.9565784496589,296.25 Z" fill="rgb(250,154,177)" stroke="#fa9ab1" stroke-width="2" stroke-linecap="round" stroke-linejoin="round"/></g>undefinedundefinedundefined</g><g id="LqdQRrImWe5"><mask id="3e880" x="726" y="276" width="108" height="198" maskUnits="userSpaceOnUse"><rect x="726" y="276" width="108" height="198" fill="white" />undefinedundefined</mask><g mask="url(#3e880)"><path d="M 820,460 L 820,300 Q 820,290 810,290 L 740,290" fill="none" stroke="#83304a" stroke-width="2" stroke-linecap="round" stroke-linejoin="round"/><path d="M 820,460 L 826.25,446.95657844965893 L 820,451.30438563310594 L 813.75,446.95657844965893 Z" fill="rgb(131,48,74)" stroke="#83304a" stroke-width="2" stroke-linecap="round" stroke-linejoin="round"/></g>undefinedundefined</g><g id="hIj3J3bimX9"><mask id="5bfeb" x="684" y="326" width="70" height="198" maskUnits="userSpaceOnUse"><rect x="684" y="326" width="70" height="198" fill="white" />undefinedundefinedundefinedundefined</mask><g mask="url(#5bfeb)"><path d="M 698,340 L 698,500 Q 698,510 708,510 L 740,510" fill="none" stroke="#ca454d" stroke-width="2" stroke-linecap="round" stroke-linejoin="round"/><path d="M 698,340 L 691.75,353.04342155034107 L 698,348.69561436689406 L 704.25,353.04342155034107 Z" fill="rgb(202,69,77)" stroke="#ca454d" stroke-width="2" stroke-linecap="round" stroke-linejoin="round"/></g>undefinedundefinedundefinedundefined</g><g id="0uKByWrad4v"><mask id="9c6a7" x="566" y="326" width="66" height="198" maskUnits="userSpaceOnUse"><rect x="566" y="326" width="66" height="198" fill="white" />undefined</mask><g mask="url(#9c6a7)"><path d="M 580,510 L 608,510 Q 618,510 618,500 L 618,340" fill="none" stroke="#83304a" stroke-width="2" stroke-linecap="round" stroke-linejoin="round"/><path d="M 580,510 L 593.0434215503411,516.25 L 588.695614366894,510 L 593.0434215503411,503.75 Z" fill="rgb(131,48,74)" stroke="#83304a" stroke-width="2" stroke-linecap="round" stroke-linejoin="round"/></g>undefined</g><g id="1Yg0AXIguHq"><g transform="translate(380 670.0000008823529)"><ellipse cx="38.23529411764706" cy="38.23529411764706" rx="38.23529411764706" ry="38.23529411764706" fill="rgb(240,201,216)" stroke="#a4617a" stroke-width="2" stroke-linecap="round" stroke-linejoin="round"/></g><g transform="translate(386.7302941176471, 699.0352949999999) rotate(0, 31.505, 9.2)" width="63.01" height="18.4"><text text-decoration="none" x="4.504999999999999" fill="#a4617a" font-size="10pt" font-family="noto_regular"  y="15">Controller</text><text text-decoration="none" x="58.504999999999995" fill="#4b4b4b" font-size="10pt" font-family="noto_regular"  y="15"></text></g></g><g id="7nQtvMoXOfu"><g transform="translate(570 670.0000008823529)"><ellipse cx="38.23529411764706" cy="38.23529411764706" rx="38.23529411764706" ry="38.23529411764706" fill="rgb(248,185,189)" stroke="#ca454d" stroke-width="2" stroke-linecap="round" stroke-linejoin="round"/></g><g transform="translate(588.5752941176471, 699.0352949999999) rotate(0, 19.66, 9.2)" width="39.32" height="18.4"><text text-decoration="none" x="2.16" fill="#ca454d" font-size="10pt" font-family="noto_regular"  y="15">Model</text><text text-decoration="none" x="37.16" fill="#4b4b4b" font-size="10pt" font-family="noto_regular"  y="15"></text></g></g><g id="3b2CtkuPaA4"><g transform="translate(760 670.0000008823529)"><ellipse cx="38.23529411764706" cy="38.23529411764706" rx="38.23529411764706" ry="38.23529411764706" fill="rgb(242,188,193)" stroke="#e0626c" stroke-width="2" stroke-linecap="round" stroke-linejoin="round"/></g><g transform="translate(766.7302941176471, 699.0352949999999) rotate(0, 31.505, 9.2)" width="63.01" height="18.4"><text text-decoration="none" x="4.504999999999999" fill="#e0626c" font-size="10pt" font-family="noto_regular"  y="15">Controller</text><text text-decoration="none" x="58.504999999999995" fill="#4b4b4b" font-size="10pt" font-family="noto_regular"  y="15"></text></g></g><g id="qNq55hhQj7q"><g transform="translate(950 670.0000008823529)"><ellipse cx="38.23529411764706" cy="38.23529411764706" rx="38.23529411764706" ry="38.23529411764706" fill="rgb(246,202,213)" stroke="#fc6a8d" stroke-width="2" stroke-linecap="round" stroke-linejoin="round"/></g><g transform="translate(973.515294117647, 699.0352949999999) rotate(0, 14.72, 9.2)" width="29.44" height="18.4"><text text-decoration="none" x="0.7200000000000006" fill="#fc6a8d" font-size="10pt" font-family="noto_regular"  y="15">View</text><text text-decoration="none" x="28.72" fill="#4b4b4b" font-size="10pt" font-family="noto_regular"  y="15"></text></g></g><g id="FGvNkFwAQtu"><g transform="translate(260 670.0000012499999)"><path d="M 0,0 L 84.99999999999997,0 L 109.99999999999997,38.23529499999996 L 84.99999999999997,76.47058999999992 L 0,76.47058999999992 L 18,38.23529499999996 L 0,0 Z" fill="white" stroke="#83304a" stroke-width="2" stroke-linecap="round" stroke-linejoin="round"/></g><g transform="translate(295.785, 689.8352962499998) rotate(0, 19.215, 18.4)" width="38.43" height="36.8"><text text-decoration="none" x="6.215" fill="#83304a" font-size="10pt" font-family="noto_regular"  y="12">User</text><text text-decoration="none" x="32.215" fill="#83304a" font-size="10pt" font-family="noto_regular"  y="12"></text><text text-decoration="none" x="1.7149999999999999" fill="#83304a" font-size="10pt" font-family="noto_regular"  y="31">action</text><text text-decoration="none" x="36.715" fill="#4b4b4b" font-size="10pt" font-family="noto_regular"  y="31"></text></g></g><g id="c9o999XUnhy"><g transform="translate(189.99999999999997 670.0000012499999)"><ellipse cx="38.23529411764706" cy="38.23529411764706" rx="38.23529411764706" ry="38.23529411764706" fill="rgb(235,191,205)" stroke="#83304a" stroke-width="2" stroke-linecap="round" stroke-linejoin="round"/></g><g transform="translate(213.51529411764702, 699.0352953676469) rotate(0, 14.72, 9.2)" width="29.44" height="18.4"><text text-decoration="none" x="0.7200000000000006" fill="#83304a" font-size="10pt" font-family="noto_regular"  y="15">View</text><text text-decoration="none" x="28.72" fill="#4b4b4b" font-size="10pt" font-family="noto_regular"  y="15"></text></g></g><g id="N9a0gDD1GqK"><g transform="translate(830 669.9999987500001)"><path d="M 0,0 L 84.99999999999997,0 L 109.99999999999997,38.23529499999996 L 84.99999999999997,76.47058999999992 L 0,76.47058999999992 L 18,38.23529499999996 L 0,0 Z" fill="white" stroke="#e0626c" stroke-width="2" stroke-linecap="round" stroke-linejoin="round"/></g><g transform="translate(853.64, 699.03529375) rotate(0, 31.36, 9.2)" width="62.72" height="18.4"><text text-decoration="none" x="2.8599999999999994" fill="#e0626c" font-size="10pt" font-family="noto_regular"  y="15">Send&#160;</text><text text-decoration="none" x="34.86" fill="#e0626c" font-size="10pt" font-family="noto_regular"  y="15">data</text><text text-decoration="none" x="59.86" fill="#4b4b4b" font-size="10pt" font-family="noto_regular"  y="15"></text></g></g><g id="caYNAkYGsMc"><g transform="translate(1020 669.9999987500001)"><path d="M 0,0 L 84.99999999999997,0 L 109.99999999999997,38.23529499999996 L 84.99999999999997,76.47058999999992 L 0,76.47058999999992 L 18,38.23529499999996 L 0,0 Z" fill="white" stroke="#fc6a8d" stroke-width="2" stroke-linecap="round" stroke-linejoin="round"/></g><g transform="translate(1057.945, 689.8352937500001) rotate(0, 17.055, 18.4)" width="34.11" height="36.8"><text text-decoration="none" x="1.0549999999999997" fill="#fc6a8d" font-size="10pt" font-family="noto_regular"  y="12">Show</text><text text-decoration="none" x="33.055" fill="#fc6a8d" font-size="10pt" font-family="noto_regular"  y="12"></text><text text-decoration="none" x="4.555" fill="#fc6a8d" font-size="10pt" font-family="noto_regular"  y="31">data</text><text text-decoration="none" x="29.555" fill="#4b4b4b" font-size="10pt" font-family="noto_regular"  y="31"></text></g></g></svg>